<svg width="58" height="58" viewBox="0 0 58 58" fill="none" xmlns="http://www.w3.org/2000/svg">
<path fill-rule="evenodd" clip-rule="evenodd" d="M29 0.583328C13.3063 0.583328 0.583336 13.3062 0.583336 29C0.583336 44.6937 13.3063 57.4167 29 57.4167C44.6938 57.4167 57.4167 44.6937 57.4167 29C57.4167 13.3062 44.6938 0.583328 29 0.583328ZM31.5833 39.3333C31.5833 40.0185 31.3112 40.6756 30.8267 41.16C30.3422 41.6445 29.6851 41.9167 29 41.9167C28.3149 41.9167 27.6578 41.6445 27.1733 41.16C26.6888 40.6756 26.4167 40.0185 26.4167 39.3333V31.5833H18.6667C17.9815 31.5833 17.3244 31.3112 16.84 30.8267C16.3555 30.3422 16.0833 29.6851 16.0833 29C16.0833 28.3149 16.3555 27.6578 16.84 27.1733C17.3244 26.6888 17.9815 26.4167 18.6667 26.4167H26.4167V18.6667C26.4167 17.9815 26.6888 17.3244 27.1733 16.84C27.6578 16.3555 28.3149 16.0833 29 16.0833C29.6851 16.0833 30.3422 16.3555 30.8267 16.84C31.3112 17.3244 31.5833 17.9815 31.5833 18.6667V26.4167H39.3333C40.0185 26.4167 40.6756 26.6888 41.16 27.1733C41.6445 27.6578 41.9167 28.3149 41.9167 29C41.9167 29.6851 41.6445 30.3422 41.16 30.8267C40.6756 31.3112 40.0185 31.5833 39.3333 31.5833H31.5833V39.3333Z" fill="#94D28A"/>
</svg>
